<?xml version="1.0" ?><svg contentScriptType="text/ecmascript" contentStyleType="text/css" enable-background="new 0 0 2048 2048" height="2048px" id="Layer_1" preserveAspectRatio="xMidYMid meet" version="1.1" viewBox="4.0 0 1400.0 2048" width="1400.0px" xml:space="preserve" xmlns="http://www.w3.org/2000/svg" xmlns:xlink="http://www.w3.org/1999/xlink" zoomAndPan="magnify"><path d="M1404,1513c0,78-26.333,143.333-79,196s-118,79-196,79c-90,0-168.333-33.333-235-100L117,912C41.667,835.333,4,745,4,641  c0-106,36.667-196,110-270s163-111,269-111c105.333,0,196.333,37.667,273,113l605,606c6.667,6.667,10,14,10,22  c0,10.667-10.167,26.167-30.5,46.5s-35.833,30.5-46.5,30.5c-8.667,0-16.333-3.333-23-10L565,461c-52.667-51.333-113-77-181-77  c-70.667,0-130.333,25-179,75s-73,110.333-73,181c0,70,25.333,130.333,76,181l776,777c42,42,90.333,63,145,63c42.667,0,78-14,106-42  s42-63.333,42-106c0-54.667-21-103-63-145L633,787c-17.333-16-37.333-24-60-24c-19.333,0-35.333,6.333-48,19s-19,28.667-19,48  c0,21.333,8.333,41,25,59l410,410c6.667,6.667,10,14,10,22c0,10.667-10.333,26.333-31,47s-36.333,31-47,31c-8,0-15.333-3.333-22-10  L441,979c-42-40.667-63-90.333-63-149c0-54.667,19-101,57-139s84.333-57,139-57c58.667,0,108.333,21,149,63l581,581  C1370.667,1343.333,1404,1421.667,1404,1513z"/></svg>