<?xml version="1.0" ?><svg contentScriptType="text/ecmascript" contentStyleType="text/css" enable-background="new 0 0 2048 2048" height="2048px" id="Layer_1" preserveAspectRatio="xMidYMid meet" version="1.1" viewBox="0.0 0 1792.0 2048" width="1792.0px" xml:space="preserve" xmlns="http://www.w3.org/2000/svg" xmlns:xlink="http://www.w3.org/1999/xlink" zoomAndPan="magnify"><path d="M384,672v576c0,8.667-3.167,16.167-9.5,22.5s-13.833,9.5-22.5,9.5c-9.333,0-17-3-23-9L41,983c-6-6-9-13.667-9-23s3-17,9-23  l288-288c6-6,13.667-9,23-9c8.667,0,16.167,3.167,22.5,9.5S384,663.333,384,672z M1792,1440v192c0,8.667-3.167,16.167-9.5,22.5  s-13.833,9.5-22.5,9.5H32c-8.667,0-16.167-3.167-22.5-9.5S0,1640.667,0,1632v-192c0-8.667,3.167-16.167,9.5-22.5  s13.833-9.5,22.5-9.5h1728c8.667,0,16.167,3.167,22.5,9.5S1792,1431.333,1792,1440z M1792,1056v192c0,8.667-3.167,16.167-9.5,22.5  s-13.833,9.5-22.5,9.5H672c-8.667,0-16.167-3.167-22.5-9.5s-9.5-13.833-9.5-22.5v-192c0-8.667,3.167-16.167,9.5-22.5  s13.833-9.5,22.5-9.5h1088c8.667,0,16.167,3.167,22.5,9.5S1792,1047.333,1792,1056z M1792,672v192c0,8.667-3.167,16.167-9.5,22.5  s-13.833,9.5-22.5,9.5H672c-8.667,0-16.167-3.167-22.5-9.5S640,872.667,640,864V672c0-8.667,3.167-16.167,9.5-22.5  s13.833-9.5,22.5-9.5h1088c8.667,0,16.167,3.167,22.5,9.5S1792,663.333,1792,672z M1792,288v192c0,8.667-3.167,16.167-9.5,22.5  s-13.833,9.5-22.5,9.5H32c-8.667,0-16.167-3.167-22.5-9.5S0,488.667,0,480V288c0-8.667,3.167-16.167,9.5-22.5S23.333,256,32,256  h1728c8.667,0,16.167,3.167,22.5,9.5S1792,279.333,1792,288z"/></svg>