<?xml version="1.0" ?><svg contentScriptType="text/ecmascript" contentStyleType="text/css" enable-background="new 0 0 2048 2048" height="2048px" id="Layer_1" preserveAspectRatio="xMidYMid meet" version="1.1" viewBox="0.0 0 1408.0 2048" width="1408.0px" xml:space="preserve" xmlns="http://www.w3.org/2000/svg" xmlns:xlink="http://www.w3.org/1999/xlink" zoomAndPan="magnify"><path d="M555,1649c50.667,21.333,97.333,32,140,32c87.333,0,159.333-13.667,216-41s97.333-65,122-113c25.333-46.667,38-107,38-181  c0-76-13.667-136-41-180c-38.667-62.667-85.667-104.667-141-126c-53.333-21.333-135.667-32-247-32c-49.333,0-83,3.333-101,10v144  l-1,173l3,270C543,1615,547,1629.667,555,1649z M541,903c28.667,4.667,65,7,109,7c116.667,0,204.667-21.667,264-65s89-118,89-224  c0-74.667-28.333-137-85-187c-56-50-141-75-255-75c-34.667,0-78,4.333-130,13c0,29.333,0.667,55,2,77  c4.667,81.333,6.667,174.333,6,279l-1,98C540,854.667,540.333,880.333,541,903z M0,1792l2-94c30-6,52.667-10,68-12  c51.333-8,92.333-18.333,123-31c11.333-18,18.333-35,21-51c6-44,9-108.667,9-194l-2-497c-3.333-170.667-6.333-305.333-9-404  c-0.667-58-4.333-94.333-11-109c-0.667-2.667-4.667-6.667-12-12c-12-8-35-13-69-15c-20-1.333-58-5.667-114-13l-4-83l260-6l380-13  l45-1c3.333,0,8-0.167,14-0.5s10.667-0.5,14-0.5c0.667,0,7.833,0.167,21.5,0.5s27.167,0.5,40.5,0.5h74c58.667,0,122.333,9,191,27  c28.667,8.667,60.667,21.667,96,39c38,19.333,72,44.667,102,76c29.333,31.333,51,66,65,104s21,78.667,21,122  c0,46.667-10.667,89.333-32,128s-53,73.667-95,105c-17.333,13.333-67.333,39-150,77c118,27.333,207,76,267,146  c61.333,70.667,92,149.333,92,236c0,50.667-9.667,104.333-29,161c-14,41.333-37.667,80.333-71,117c-44,48-90.667,84-140,108  c-48.667,24-116.333,44-203,60c-54.667,10-120.667,13.667-198,11l-197-4c-56-1.333-155.333,2.333-298,11  C250,1783,159.333,1786.667,0,1792z"/></svg>