<?xml version="1.0" ?><svg contentScriptType="text/ecmascript" contentStyleType="text/css" enable-background="new 0 0 2048 2048" height="2048px" id="Layer_1" preserveAspectRatio="xMidYMid meet" version="1.1" viewBox="0.0 0 1792.0 2048" width="1792.0px" xml:space="preserve" xmlns="http://www.w3.org/2000/svg" xmlns:xlink="http://www.w3.org/1999/xlink" zoomAndPan="magnify"><path d="M384,1536c0,53.333-18.667,98.667-56,136s-82.667,56-136,56s-98.667-18.667-136-56s-56-82.667-56-136s18.667-98.667,56-136  s82.667-56,136-56s98.667,18.667,136,56S384,1482.667,384,1536z M384,1024c0,53.333-18.667,98.667-56,136  c-37.333,37.333-82.667,56-136,56s-98.667-18.667-136-56c-37.333-37.333-56-82.667-56-136c0-53.333,18.667-98.667,56-136  s82.667-56,136-56s98.667,18.667,136,56S384,970.667,384,1024z M1792,1440v192c0,8.667-3.167,16.167-9.5,22.5s-13.833,9.5-22.5,9.5  H544c-8.667,0-16.167-3.167-22.5-9.5s-9.5-13.833-9.5-22.5v-192c0-8.667,3.167-16.167,9.5-22.5s13.833-9.5,22.5-9.5h1216  c8.667,0,16.167,3.167,22.5,9.5S1792,1431.333,1792,1440z M384,512c0,53.333-18.667,98.667-56,136c-37.333,37.333-82.667,56-136,56  s-98.667-18.667-136-56C18.667,610.667,0,565.333,0,512s18.667-98.667,56-136s82.667-56,136-56s98.667,18.667,136,56  S384,458.667,384,512z M1792,928v192c0,8.667-3.167,16.167-9.5,22.5s-13.833,9.5-22.5,9.5H544c-8.667,0-16.167-3.167-22.5-9.5  s-9.5-13.833-9.5-22.5V928c0-8.667,3.167-16.167,9.5-22.5s13.833-9.5,22.5-9.5h1216c8.667,0,16.167,3.167,22.5,9.5  S1792,919.333,1792,928z M1792,416v192c0,8.667-3.167,16.167-9.5,22.5s-13.833,9.5-22.5,9.5H544c-8.667,0-16.167-3.167-22.5-9.5  S512,616.667,512,608V416c0-8.667,3.167-16.167,9.5-22.5s13.833-9.5,22.5-9.5h1216c8.667,0,16.167,3.167,22.5,9.5  S1792,407.333,1792,416z"/></svg>