<?xml version="1.0" ?><svg contentScriptType="text/ecmascript" contentStyleType="text/css" enable-background="new 0 0 2048 2048" height="2048px" id="Layer_1" preserveAspectRatio="xMidYMid meet" version="1.1" viewBox="45.0 0 1830.0 2048" width="1830.0px" xml:space="preserve" xmlns="http://www.w3.org/2000/svg" xmlns:xlink="http://www.w3.org/1999/xlink" zoomAndPan="magnify"><path d="M617,1527l-50,50c-6.667,6.667-14.333,10-23,10s-16.333-3.333-23-10L55,1111c-6.667-6.667-10-14.333-10-23  s3.333-16.333,10-23l466-466c6.667-6.667,14.333-10,23-10s16.333,3.333,23,10l50,50c6.667,6.667,10,14.333,10,23  s-3.333,16.333-10,23l-393,393l393,393c6.667,6.667,10,14.333,10,23S623.667,1520.333,617,1527z M1208,460L835,1751  c-2.667,8.667-7.833,15.167-15.5,19.5s-15.5,5.167-23.5,2.5l-62-17c-8.667-2.667-15.167-7.833-19.5-15.5s-5.167-15.833-2.5-24.5  l373-1291c2.667-8.667,7.833-15.167,15.5-19.5s15.5-5.167,23.5-2.5l62,17c8.667,2.667,15.167,7.833,19.5,15.5  S1210.667,451.333,1208,460z M1865,1111l-466,466c-6.667,6.667-14.333,10-23,10s-16.333-3.333-23-10l-50-50  c-6.667-6.667-10-14.333-10-23s3.333-16.333,10-23l393-393l-393-393c-6.667-6.667-10-14.333-10-23s3.333-16.333,10-23l50-50  c6.667-6.667,14.333-10,23-10s16.333,3.333,23,10l466,466c6.667,6.667,10,14.333,10,23S1871.667,1104.333,1865,1111z"/></svg>