<?xml version="1.0" ?><svg contentScriptType="text/ecmascript" contentStyleType="text/css" enable-background="new 0 0 2048 2048" height="2048px" id="Layer_1" preserveAspectRatio="xMidYMid meet" version="1.1" viewBox="94.83300018310547 0 925.1669921875 2048" width="925.1669921875px" xml:space="preserve" xmlns="http://www.w3.org/2000/svg" xmlns:xlink="http://www.w3.org/1999/xlink" zoomAndPan="magnify"><path d="M704,1384v240c0,10.667-4,20-12,28s-17.333,12-28,12H424c-10.667,0-20-4-28-12s-12-17.333-12-28v-240c0-10.667,4-20,12-28  s17.333-12,28-12h240c10.667,0,20,4,28,12S704,1373.333,704,1384z M1020,784c0,36-5.167,69.667-15.5,101s-22,56.833-35,76.5  s-31.333,39.5-55,59.5s-42.833,34.5-57.5,43.5s-35,20.833-61,35.5c-27.333,15.333-50.167,37-68.5,65s-27.5,50.333-27.5,67  c0,11.333-4,22.167-12,32.5s-17.333,15.5-28,15.5H420c-10,0-18.5-6.167-25.5-18.5S384,1236.667,384,1224v-45  c0-55.333,21.667-107.5,65-156.5s91-85.167,143-108.5c39.333-18,67.333-36.667,84-56s25-44.667,25-76c0-28-15.5-52.667-46.5-74  s-66.833-32-107.5-32c-43.333,0-79.333,9.667-108,29c-23.333,16.667-59,55-107,115c-8.667,10.667-19,16-31,16  c-8,0-16.333-2.667-25-8L112,703c-8.667-6.667-13.833-15-15.5-25s0.167-19.333,5.5-28c106.667-177.333,261.333-266,464-266  c53.333,0,107,10.333,161,31s102.667,48.333,146,83s78.667,77.167,106,127.5C1006.333,675.833,1020,728.667,1020,784z"/></svg>