<?xml version="1.0" ?><svg contentScriptType="text/ecmascript" contentStyleType="text/css" enable-background="new 0 0 2048 2048" height="2048px" id="Layer_1" preserveAspectRatio="xMidYMid meet" version="1.1" viewBox="0.0 0 1024.0 2048" width="1024.0px" xml:space="preserve" xmlns="http://www.w3.org/2000/svg" xmlns:xlink="http://www.w3.org/1999/xlink" zoomAndPan="magnify"><path d="M0,1790l17-85c2.667-0.667,28.333-7.333,77-20c50.667-12.667,89.333-25.667,116-39c19.333-24.667,33-58.333,41-101l27-139  l56-268l12-64c5.333-29.333,11-57.5,17-84.5s11.333-49.333,16-67s8.833-33.167,12.5-46.5s6.667-23.5,9-30.5s3.5-10.833,3.5-11.5  l29-157l16-63l22-135l8-50v-38c-27.333-14.667-75.333-24-144-28c-18.667-1.333-31.333-2.667-38-4l19-103l317,14  c26,1.333,50.333,2,73,2c44,0,115.333-3,214-9c22-1.333,44.667-2.833,68-4.5s35.333-2.5,36-2.5c-1.333,12.667-3.333,25.333-6,38  c-4.667,19.333-9,36.333-13,51c-36.667,12.667-73,23-109,31c-42.667,10.667-76.333,21-101,31c-8,20.667-16,50-24,88  c-6,29.333-10.333,56.667-13,82c-29.333,132.667-51.333,234.667-66,306l-61,311l-38,158l-43,235l-12,45c-1.333,4.667-1,13.667,1,27  c42.667,10,82.333,17,119,21c24,3.333,46,6.667,66,10c-0.667,19.333-3,38.667-7,58c-4.667,20.667-7.667,34.333-9,41  c-12,0-19.667,0.333-23,1c-16,1.333-30,2-42,2c-6,0-15.333-1-28-3c-12.667-2.667-61-8.333-145-17l-198-2  c-27.333-0.667-85.333,3-174,11C48.667,1785.667,16,1788.667,0,1790z"/></svg>