<?xml version="1.0" ?><svg contentScriptType="text/ecmascript" contentStyleType="text/css" enable-background="new 0 0 2048 2048" height="2048px" id="Layer_1" preserveAspectRatio="xMidYMid meet" version="1.1" viewBox="16.0 0 1632.0 2048" width="1632.0px" xml:space="preserve" xmlns="http://www.w3.org/2000/svg" xmlns:xlink="http://www.w3.org/1999/xlink" zoomAndPan="magnify"><path d="M1456,1344c0-26.667-9.333-49.333-28-68l-208-208c-18.667-18.667-41.333-28-68-28c-28,0-52,10.667-72,32  c2,2,8.333,8.167,19,18.5s17.833,17.5,21.5,21.5s8.667,10.333,15,19s10.667,17.167,13,25.5c2.333,8.333,3.5,17.5,3.5,27.5  c0,26.667-9.333,49.333-28,68s-41.333,28-68,28c-10,0-19.167-1.167-27.5-3.5c-8.333-2.333-16.833-6.667-25.5-13s-15-11.333-19-15  s-11.167-10.833-21.5-21.5s-16.5-17-18.5-19c-22,20.667-33,45-33,73c0,26.667,9.333,49.333,28,68l206,207c18,18,40.667,27,68,27  c26.667,0,49.333-8.667,68-26l147-146C1446.667,1392.333,1456,1370,1456,1344z M753,639c0-26.667-9.333-49.333-28-68L519,364  c-18.667-18.667-41.333-28-68-28c-26,0-48.667,9-68,27L236,509c-18.667,18.667-28,41-28,67c0,26.667,9.333,49.333,28,68l208,208  c18,18,40.667,27,68,27c28,0,52-10.333,72-31c-2-2-8.333-8.167-19-18.5S547.167,812,543.5,808s-8.667-10.333-15-19  s-10.667-17.167-13-25.5S512,746,512,736c0-26.667,9.333-49.333,28-68s41.333-28,68-28c10,0,19.167,1.167,27.5,3.5  s16.833,6.667,25.5,13s15,11.333,19,15s11.167,10.833,21.5,21.5s16.5,17,18.5,19C742,691.333,753,667,753,639z M1648,1344  c0,80-28.333,147.667-85,203l-147,146c-55.333,55.333-123,83-203,83c-80.667,0-148.667-28.333-204-85l-206-207  c-55.333-55.333-83-123-83-203c0-82,29.333-151.667,88-209l-88-88c-57.333,58.667-126.667,88-208,88c-80,0-148-28-204-84L100,780  c-56-56-84-124-84-204s28.333-147.667,85-203l147-146c55.333-55.333,123-83,203-83c80.667,0,148.667,28.333,204,85l206,207  c55.333,55.333,83,123,83,203c0,82-29.333,151.667-88,209l88,88c57.333-58.667,126.667-88,208-88c80,0,148,28,204,84l208,208  C1620,1196,1648,1264,1648,1344z"/></svg>