<?xml version="1.0" ?><svg contentScriptType="text/ecmascript" contentStyleType="text/css" enable-background="new 0 0 2048 2048" height="2048px" id="Layer_1" preserveAspectRatio="xMidYMid meet" version="1.1" viewBox="15.0 0 1777.0 2048" width="1777.0px" xml:space="preserve" xmlns="http://www.w3.org/2000/svg" xmlns:xlink="http://www.w3.org/1999/xlink" zoomAndPan="magnify"><path d="M381,1748c0,53.333-18.167,95.333-54.5,126s-81.5,46-135.5,46c-70.667,0-128-22-172-66l57-88c32.667,30,68,45,106,45  c19.333,0,36.167-4.833,50.5-14.5s21.5-23.833,21.5-42.5c0-42.667-35-61.333-105-56l-26-56c5.333-6.667,16.167-21.167,32.5-43.5  s30.5-40.333,42.5-54s24.333-26.5,37-38.5v-1c-10.667,0-26.833,0.333-48.5,1s-37.833,1-48.5,1v53H32v-152h333v88l-95,115  c34,8,61,24.333,81,49S381,1714,381,1748z M383,1121v159H21c-4-24-6-42-6-54c0-34,7.833-65,23.5-93s34.5-50.667,56.5-68  s44-33.167,66-47.5c22-14.333,40.833-28.833,56.5-43.5s23.5-29.667,23.5-45c0-16.667-4.833-29.5-14.5-38.5S203.667,877,187,877  c-30.667,0-57.667,19.333-81,58l-85-59c16-34,39.833-60.5,71.5-79.5S159.333,768,198,768c48.667,0,89.667,13.833,123,41.5  s50,65.167,50,112.5c0,33.333-11.333,63.833-34,91.5c-22.667,27.667-47.667,49.167-75,64.5s-52.5,32.167-75.5,50.5  s-34.833,35.833-35.5,52.5h127v-60H383z M1792,1440v192c0,8.667-3.167,16.167-9.5,22.5s-13.833,9.5-22.5,9.5H544  c-8.667,0-16.167-3.167-22.5-9.5s-9.5-13.833-9.5-22.5v-192c0-9.333,3-17,9-23s13.667-9,23-9h1216c8.667,0,16.167,3.167,22.5,9.5  S1792,1431.333,1792,1440z M384,541v99H49v-99h107c0-27.333,0.167-68,0.5-122s0.5-94.333,0.5-121v-12h-2  c-5.333,11.333-22,29.333-50,54l-71-76l136-127h106v404H384z M1792,928v192c0,8.667-3.167,16.167-9.5,22.5s-13.833,9.5-22.5,9.5H544  c-8.667,0-16.167-3.167-22.5-9.5s-9.5-13.833-9.5-22.5V928c0-9.333,3-17,9-23s13.667-9,23-9h1216c8.667,0,16.167,3.167,22.5,9.5  S1792,919.333,1792,928z M1792,416v192c0,8.667-3.167,16.167-9.5,22.5s-13.833,9.5-22.5,9.5H544c-8.667,0-16.167-3.167-22.5-9.5  S512,616.667,512,608V416c0-8.667,3.167-16.167,9.5-22.5s13.833-9.5,22.5-9.5h1216c8.667,0,16.167,3.167,22.5,9.5  S1792,407.333,1792,416z"/></svg>