<?xml version="1.0" ?><svg contentScriptType="text/ecmascript" contentStyleType="text/css" enable-background="new 0 0 2048 2048" height="2048px" id="Layer_1" preserveAspectRatio="xMidYMid meet" version="1.1" viewBox="0.0 0 1664.0 2048" width="1664.0px" xml:space="preserve" xmlns="http://www.w3.org/2000/svg" xmlns:xlink="http://www.w3.org/1999/xlink" zoomAndPan="magnify"><path d="M768,448v704c0,69.333-13.5,135.5-40.5,198.5S664,1468,618,1514s-100.5,82.5-163.5,109.5S325.333,1664,256,1664h-64  c-17.333,0-32.333-6.333-45-19s-19-27.667-19-45v-128c0-17.333,6.333-32.333,19-45s27.667-19,45-19h64c70.667,0,131-25,181-75  s75-110.333,75-181v-32c0-26.667-9.333-49.333-28-68s-41.333-28-68-28H192c-53.333,0-98.667-18.667-136-56S0,885.333,0,832V448  c0-53.333,18.667-98.667,56-136s82.667-56,136-56h384c53.333,0,98.667,18.667,136,56S768,394.667,768,448z M1664,448v704  c0,69.333-13.5,135.5-40.5,198.5S1560,1468,1514,1514s-100.5,82.5-163.5,109.5S1221.333,1664,1152,1664h-64  c-17.333,0-32.333-6.333-45-19s-19-27.667-19-45v-128c0-17.333,6.333-32.333,19-45s27.667-19,45-19h64c70.667,0,131-25,181-75  s75-110.333,75-181v-32c0-26.667-9.333-49.333-28-68s-41.333-28-68-28h-224c-53.333,0-98.667-18.667-136-56s-56-82.667-56-136V448  c0-53.333,18.667-98.667,56-136s82.667-56,136-56h384c53.333,0,98.667,18.667,136,56S1664,394.667,1664,448z"/></svg>