<?xml version="1.0" ?><svg contentScriptType="text/ecmascript" contentStyleType="text/css" enable-background="new 0 0 2048 2048" height="2048px" id="Layer_1" preserveAspectRatio="xMidYMid meet" version="1.1" viewBox="0.0 0 1792.0 2048" width="1792.0px" xml:space="preserve" xmlns="http://www.w3.org/2000/svg" xmlns:xlink="http://www.w3.org/1999/xlink" zoomAndPan="magnify"><path d="M1792,768c0,17.333-6.333,32.333-19,45l-512,512c-12.667,12.667-27.667,19-45,19s-32.333-6.333-45-19s-19-27.667-19-45v-256  H928c-65.333,0-123.833,2-175.5,6s-103,11.167-154,21.5s-95.333,24.5-133,42.5s-72.833,41.167-105.5,69.5  c-32.667,28.333-59.333,62-80,101s-36.833,85.167-48.5,138.5S214,1516.667,214,1584c0,36.667,1.667,77.667,5,123  c0,4,0.833,11.833,2.5,23.5s2.5,20.5,2.5,26.5c0,10-2.833,18.333-8.5,25s-13.5,10-23.5,10c-10.667,0-20-5.667-28-17  c-4.667-6-9-13.333-13-22s-8.5-18.667-13.5-30s-8.5-19.333-10.5-24C42.333,1509,0,1358.667,0,1248c0-132.667,17.667-243.667,53-333  c108-268.667,399.667-403,875-403h224V256c0-17.333,6.333-32.333,19-45s27.667-19,45-19s32.333,6.333,45,19l512,512  C1785.667,735.667,1792,750.667,1792,768z"/></svg>