<?xml version="1.0" ?><svg contentScriptType="text/ecmascript" contentStyleType="text/css" enable-background="new 0 0 2048 2048" height="2048px" id="Layer_1" preserveAspectRatio="xMidYMid meet" version="1.1" viewBox="0.0 0 1792.0 2048" width="1792.0px" xml:space="preserve" xmlns="http://www.w3.org/2000/svg" xmlns:xlink="http://www.w3.org/1999/xlink" zoomAndPan="magnify"><path d="M1760,1024c9.333,0,17,3,23,9s9,13.667,9,23v64c0,9.333-3,17-9,23s-13.667,9-23,9H32c-9.333,0-17-3-23-9s-9-13.667-9-23v-64  c0-9.333,3-17,9-23s13.667-9,23-9H1760z M483,960c-18.667-23.333-35.667-50-51-80c-32-64.667-48-127.333-48-188  c0-120.667,44.667-223.667,134-309c88.667-84.667,219.667-127,393-127c33.333,0,89,6.333,167,19c44,8,103,24,177,48  c6.667,25.333,13.667,64.667,21,118c9.333,82,14,143,14,183c0,12-1.667,27-5,45l-12,3l-84-6l-14-2  c-33.333-99.333-67.667-167.667-103-205c-58.667-60.667-128.667-91-210-91c-76,0-136.667,19.667-182,59  c-44.667,38.667-67,87.333-67,146c0,48.667,22,95.333,66,140s137,87.667,279,129c46,13.333,103.667,35.333,173,66  c38.667,18.667,70.333,36,95,52H483z M990,1216h411c4.667,26,7,56.667,7,92c0,74-13.667,144.667-41,212  c-15.333,36.667-39,71.333-71,104c-24.667,23.333-61,50.333-109,81c-53.333,32-104.333,54-153,66c-53.333,14-121,21-203,21  c-76,0-141-7.667-195-23l-140-40c-38-10.667-62-20-72-28c-5.333-5.333-8-12.667-8-22v-13c0-72-0.667-124-2-156  c-0.667-20-0.667-42.667,0-68l2-37v-44l102-2c10,22.667,20,46.333,30,71s17.5,43.333,22.5,56s9.167,21.667,12.5,27  c23.333,38,50,69.333,80,94c28.667,24,63.667,43,105,57c39.333,14.667,83.333,22,132,22c42.667,0,89-9,139-27  c51.333-17.333,92-46,122-86c31.333-40.667,47-83.667,47-129c0-56-27-108.333-81-157C1104.333,1267.667,1058.667,1244,990,1216z"/></svg>