<?xml version="1.0" ?><svg contentScriptType="text/ecmascript" contentStyleType="text/css" enable-background="new 0 0 2048 2048" height="2048px" id="Layer_1" preserveAspectRatio="xMidYMid meet" version="1.1" viewBox="0.0 0 1792.0 2048" width="1792.0px" xml:space="preserve" xmlns="http://www.w3.org/2000/svg" xmlns:xlink="http://www.w3.org/1999/xlink" zoomAndPan="magnify"><path d="M1792,1248c0,110.667-42.333,261-127,451c-2,4.667-5.5,12.667-10.5,24s-9.5,21.333-13.5,30s-8.333,16-13,22  c-8,11.333-17.333,17-28,17c-10,0-17.833-3.333-23.5-10s-8.5-15-8.5-25c0-6,0.833-14.833,2.5-26.5s2.5-19.5,2.5-23.5  c3.333-45.333,5-86.333,5-123c0-67.333-5.833-127.667-17.5-181s-27.833-99.5-48.5-138.5s-47.333-72.667-80-101  c-32.667-28.333-67.833-51.5-105.5-69.5s-82-32.167-133-42.5s-102.333-17.5-154-21.5c-51.667-4-110.167-6-175.5-6H640v256  c0,17.333-6.333,32.333-19,45s-27.667,19-45,19s-32.333-6.333-45-19L19,813C6.333,800.333,0,785.333,0,768s6.333-32.333,19-45  l512-512c12.667-12.667,27.667-19,45-19s32.333,6.333,45,19s19,27.667,19,45v256h224c475.333,0,767,134.333,875,403  C1774.333,1004.333,1792,1115.333,1792,1248z"/></svg>