<?xml version="1.0" ?><svg contentScriptType="text/ecmascript" contentStyleType="text/css" enable-background="new 0 0 2048 2048" height="2048px" id="Layer_1" preserveAspectRatio="xMidYMid meet" version="1.1" viewBox="0.0 0 1664.0 2048" width="1664.0px" xml:space="preserve" xmlns="http://www.w3.org/2000/svg" xmlns:xlink="http://www.w3.org/1999/xlink" zoomAndPan="magnify"><path d="M439,1399l-256,256c-6.667,6-14.333,9-23,9c-8,0-15.667-3-23-9c-6-6.667-9-14.333-9-23s3-16.333,9-23l256-256  c6.667-6,14.333-9,23-9s16.333,3,23,9c6,6.667,9,14.333,9,23S445,1392.333,439,1399z M608,1440v320c0,9.333-3,17-9,23  s-13.667,9-23,9s-17-3-23-9s-9-13.667-9-23v-320c0-9.333,3-17,9-23s13.667-9,23-9s17,3,23,9S608,1430.667,608,1440z M384,1216  c0,9.333-3,17-9,23s-13.667,9-23,9H32c-9.333,0-17-3-23-9s-9-13.667-9-23s3-17,9-23s13.667-9,23-9h320c9.333,0,17,3,23,9  S384,1206.667,384,1216z M1648,1344c0,80-28.333,147.667-85,203l-147,146c-55.333,55.333-123,83-203,83  c-80.667,0-148.667-28.333-204-85l-334-335c-14-14-28-32.667-42-56l239-18l273,274c18,18,40.667,27.167,68,27.5s50-8.5,68-26.5  l147-146c18.667-18.667,28-41,28-67c0-26.667-9.333-49.333-28-68l-274-275l18-239c23.333,14,42,28,56,42l336,336  C1620,1197.333,1648,1265.333,1648,1344z M1031,620l-239,18L519,364c-18.667-18.667-41.333-28-68-28c-26,0-48.667,9-68,27L236,509  c-18.667,18.667-28,41-28,67c0,26.667,9.333,49.333,28,68l274,274l-18,240c-23.333-14-42-28-56-42L100,780  c-56-57.333-84-125.333-84-204c0-80,28.333-147.667,85-203l147-146c55.333-55.333,123-83,203-83c80.667,0,148.667,28.333,204,85  l334,335C1003,578,1017,596.667,1031,620z M1664,704c0,9.333-3,17-9,23s-13.667,9-23,9h-320c-9.333,0-17-3-23-9s-9-13.667-9-23  s3-17,9-23s13.667-9,23-9h320c9.333,0,17,3,23,9S1664,694.667,1664,704z M1120,160v320c0,9.333-3,17-9,23s-13.667,9-23,9s-17-3-23-9  s-9-13.667-9-23V160c0-9.333,3-17,9-23s13.667-9,23-9s17,3,23,9S1120,150.667,1120,160z M1527,311l-256,256c-7.333,6-15,9-23,9  s-15.667-3-23-9c-6-6.667-9-14.333-9-23s3-16.333,9-23l256-256c6.667-6,14.333-9,23-9s16.333,3,23,9c6,6.667,9,14.333,9,23  S1533,304.333,1527,311z"/></svg>